<?xml version="1.0" encoding="utf-8"?>
<!-- Generator: Adobe Illustrator 19.2.0, SVG Export Plug-In . SVG Version: 6.00 Build 0)  -->
<svg version="1.1" id="Layer_1" xmlns="http://www.w3.org/2000/svg" xmlns:xlink="http://www.w3.org/1999/xlink" x="0px" y="0px"
	 viewBox="0 0 147 107" style="enable-background:new 0 0 147 107;" xml:space="preserve">
<style type="text/css">
	.st0{fill:#262626;}
	.st1{fill:#4D4D4D;}
	.st2{fill:#DBDBDB;}
</style>
<title>GoBcreative_logo</title>
<path class="st0" d="M93.6,63.7c0-0.3,0.3-0.6,0.6-0.6h23.2c0.3,0,0.6-0.3,0.6-0.6v-8.7c0-0.3-0.3-0.6-0.6-0.6H94
	c-0.3,0-0.5-0.3-0.6-0.6l0.1-18.2c0-0.3,0.3-0.6,0.6-0.6h23.2c0.3,0,0.6-0.3,0.6-0.6c0,0,0,0,0,0l-0.1-8.6c0-0.3-0.3-0.6-0.6-0.6
	l-23.1,0.1c-0.3,0-0.6-0.3-0.6-0.6V5.9c0-0.3,0.3-0.6,0.6-0.6l23.7-0.2c12.9,0,19.3,6.4,19.3,19.3s-3.3,19.3-9.9,19.4
	c6.5-0.1,9.8,6.4,9.9,19.4c0,12.8-6.5,19.2-19.4,19.2L93.2,83C92.7,83,93.6,63.7,93.6,63.7z"/>
<path class="st0" d="M66.4,83.2l-35.8-0.4c-13,0-19.5-6.4-19.5-19.3V24.5c0-12.9,6.4-19.3,19.3-19.3H79L78.6,24L68,24.1l-37.5,0.4
	l-0.1,38.9l17,0.1 M47.4,63.5l18,19.6C79,83,79.1,34.2,79.1,34.2h-31l0.1,19.3l11.6,0.1v9.9L47.4,63.5"/>
<path class="st1" d="M109.3,63.2V24.1c0-12.8-6.4-19.3-19.3-19.3H77.7v19.4h12.2v38.9H77.7l-0.5,20.1h12.9
	C103,83.2,109.3,76,109.3,63.2z"/>
<path d="M59.7,63.3"/>
<path d="M79,63.4"/>
<path class="st1" d="M67.3,83.2H79V63.1H67.3l0-38.4c0-0.3,0.3-0.6,0.6-0.6c0,0,0,0,0,0l11.2,0.1V4.8H67.4
	c-12.9,0-19.5,6.2-19.5,19.1v39.3C47.9,76.1,54.3,83.2,67.3,83.2z"/>
<polyline class="st2" points="79.1,34.2 53.3,33.9 47.9,33.9 47.9,53.3 67.4,53.5 "/>
<path class="st1" d="M18.2,99.2c-1,0-1.9-0.1-2.8-0.5c-0.7-0.3-1.4-0.8-2-1.3c-0.5-0.6-0.9-1.3-1.2-2c-0.3-0.8-0.4-1.6-0.4-2.5
	c0-0.8,0.1-1.5,0.4-2.2c0.3-0.8,0.7-1.5,1.2-2c0.6-0.6,1.3-1.1,2.1-1.5c1-0.4,2-0.6,3-0.6c0.6,0,1.2,0,1.8,0.1
	c0.6,0.1,1.2,0.2,1.8,0.4c0,0.3,0.1,0.8,0.1,1.3c0.1,0.5,0.2,1,0.3,1.5l-0.2,0c-0.1,0-0.2,0-0.2,0c-0.1,0-0.2,0-0.3,0
	c-0.1,0-0.1-0.1-0.1-0.2c-0.1-0.4-0.3-0.7-0.5-1c-0.2-0.3-0.4-0.5-0.6-0.7c-0.3-0.2-0.6-0.3-0.9-0.4c-0.4-0.1-0.8-0.1-1.2-0.1
	c-0.6,0-1.2,0.1-1.8,0.3c-0.5,0.2-1,0.6-1.3,1c-0.4,0.5-0.6,1-0.8,1.6c-0.2,0.7-0.3,1.4-0.3,2.1c0,0.8,0.1,1.5,0.3,2.3
	c0.2,0.7,0.5,1.3,0.9,1.8c0.4,0.5,0.8,0.9,1.4,1.2c0.5,0.3,1.1,0.4,1.7,0.4c0.4,0,0.9,0,1.3-0.1c0.7-0.2,1.2-0.6,1.6-1.2
	c0.2-0.3,0.4-0.7,0.5-1.1c0-0.1,0.1-0.2,0.2-0.2c0.1,0,0.2-0.1,0.3-0.1c0.1,0,0.2,0,0.2,0c0.1,0,0.2,0,0.2,0.1
	c-0.1,0.2-0.2,0.5-0.2,0.7l-0.3,0.8c-0.1,0.3-0.2,0.6-0.2,0.8c-0.1,0.3-0.1,0.6-0.2,0.8c-0.6,0.1-1.3,0.2-1.9,0.2
	C19.7,99.1,19,99.2,18.2,99.2z"/>
<path class="st1" d="M34.2,93.5h-0.8v3.9c0,0.3,0.1,0.5,0.4,0.6c0.4,0.2,0.8,0.3,1.3,0.3c0.2,0,0.3,0.2,0.3,0.4c0,0,0,0,0,0
	c0,0.1,0,0.2,0,0.3c-0.4,0-0.8,0-1.4-0.1c-0.5,0-1.1,0-1.8,0c-0.5,0-0.9,0-1.3,0c-0.4,0-0.8,0-1.2,0.1c0-0.1,0-0.1,0-0.2v-0.2
	c0-0.2,0.1-0.3,0.2-0.4c0.3,0,0.5-0.1,0.6-0.1c0.1,0,0.3-0.1,0.4-0.1c0.1,0,0.1-0.1,0.2-0.2c0-0.1,0-0.2,0-0.3v-9.4
	c0-0.2-0.1-0.4-0.3-0.5c-0.3-0.2-0.7-0.2-1-0.3c-0.1,0-0.1-0.1-0.2-0.1c0-0.1-0.1-0.2-0.1-0.3v-0.2c0-0.1,0-0.1,0-0.1
	c0.4,0,0.8,0,1.2,0.1s0.9,0,1.2,0h2.8c0.6,0,1.2,0.1,1.8,0.2c0.5,0.1,0.9,0.4,1.3,0.7c0.4,0.3,0.7,0.7,0.8,1.1
	c0.2,0.4,0.3,0.9,0.3,1.4c0,0.7-0.2,1.3-0.6,1.8c-0.4,0.6-1,1-1.7,1.2l3,4.3c0.2,0.3,0.5,0.5,0.8,0.7c0.3,0.1,0.5,0.2,0.8,0.3
	c0.1,0,0.1,0,0.1,0.1c0,0.1,0.1,0.2,0.1,0.2v0.2c0,0.1,0,0.1,0,0.2c-0.1,0-0.3,0-0.6,0l-0.8,0l-0.8,0h-0.7c-0.3,0-0.6-0.1-0.8-0.3
	c-0.3-0.3-0.6-0.6-0.8-0.9L34.2,93.5z M34,92.6c0.4,0,0.7,0,1.1-0.1c0.3-0.1,0.6-0.2,0.8-0.4c0.2-0.2,0.4-0.4,0.5-0.7
	c0.1-0.4,0.2-0.8,0.2-1.2c0-0.7-0.2-1.3-0.6-1.9c-0.4-0.5-1-0.7-2-0.7h-0.6v4.9L34,92.6L34,92.6z"/>
<path class="st1" d="M51.6,87.6v4.6h2.7c0.2,0,0.4-0.1,0.5-0.3c0.1-0.3,0.2-0.6,0.2-0.9c0-0.1,0-0.2,0.1-0.2c0.1,0,0.2,0,0.2,0h0.2
	c0.1,0,0.1,0,0.2,0c0,0.3,0,0.6-0.1,1c0,0.4,0,0.7,0,1c0,0.2,0,0.5,0,0.8c0,0.3,0,0.7,0.1,1c-0.1,0-0.1,0-0.2,0h-0.2
	c-0.2,0-0.3-0.1-0.4-0.2c0,0,0,0,0,0c0-0.3-0.1-0.7-0.3-1c-0.1-0.2-0.3-0.3-0.5-0.3h-2.7v4.2c0,0.3,0.2,0.5,0.5,0.5
	c0.5,0.1,1.1,0.2,1.7,0.1h0.8c0.3,0,0.6,0,1-0.1c0.3-0.1,0.5-0.2,0.7-0.4c0.2-0.2,0.4-0.4,0.5-0.6c0.2-0.2,0.3-0.5,0.5-0.8
	c0.1-0.1,0.2-0.1,0.3-0.1c0.1,0,0.2,0,0.2,0.1l0.3,0.1c0,0.1-0.1,0.2-0.1,0.3s-0.1,0.2-0.1,0.3c-0.1,0.1-0.1,0.3-0.1,0.5
	c0,0.1-0.1,0.3-0.1,0.4l-0.1,0.4c0,0.2-0.1,0.3-0.1,0.5c0,0.2-0.1,0.3-0.1,0.4c0,0.1-0.1,0.2-0.1,0.2c-0.1,0.1-0.2,0.2-0.3,0.2h-0.4
	l-0.6,0l-0.7,0c-0.2,0-0.4,0-0.6,0h-4.3c-0.4,0-0.8,0-1.3,0c-0.5,0-0.9,0-1.3,0.1c0-0.1,0-0.1,0-0.2v-0.2c0-0.1,0-0.3,0.2-0.3
	c0,0,0,0,0,0c0.4-0.1,0.7-0.1,1-0.3c0.2-0.1,0.3-0.3,0.3-0.5v-9.5c0-0.1,0-0.2-0.1-0.3c0-0.1-0.1-0.2-0.2-0.2
	c-0.1-0.1-0.3-0.1-0.4-0.1c-0.2,0-0.4-0.1-0.6-0.1c-0.1-0.1-0.2-0.2-0.2-0.3v-0.2c0-0.1,0-0.1,0-0.2c0.5,0,1,0.1,1.4,0.1
	c0.4,0,0.8,0,1.1,0h3.9c0.6,0,1.1,0,1.5-0.1c0.4,0,0.7-0.1,0.8-0.1c0.1,0,0.2,0.1,0.3,0.2c0.1,0.2,0.1,0.4,0.1,0.6
	c0,0.3,0.1,0.6,0.1,0.8c0,0.2,0.1,0.4,0.1,0.6c0,0.2,0.1,0.5,0.2,0.7l-0.2,0.1c-0.1,0-0.2,0-0.2,0c-0.1,0-0.2-0.1-0.3-0.2
	c-0.1-0.3-0.3-0.6-0.5-0.8c-0.1-0.2-0.3-0.4-0.5-0.6c-0.2-0.1-0.4-0.3-0.6-0.3c-0.3-0.1-0.6-0.1-0.9-0.1L51.6,87.6L51.6,87.6z"/>
<path class="st1" d="M71.3,94.8h-4l-1,2.6c0,0.1-0.1,0.1-0.1,0.2c0,0.1,0,0.1,0,0.2c0,0.1,0.1,0.3,0.2,0.3c0.3,0.1,0.5,0.2,0.8,0.2
	c0.2,0,0.3,0.2,0.3,0.3c0,0,0,0,0,0c0,0.1,0,0.2,0,0.3L66.5,99c-0.4,0-0.7,0-1.1,0c-0.3,0-0.5,0-0.8,0S64,99,63.6,99
	c0-0.1,0-0.1,0-0.2v-0.2c0-0.2,0.1-0.4,0.2-0.4c0.3,0,0.6-0.1,0.8-0.2c0.2-0.1,0.3-0.3,0.4-0.5l4.5-10.8c0.1-0.2,0.3-0.3,0.5-0.3
	h0.2l0.2,0L75,97.7c0.1,0.2,0.2,0.3,0.4,0.4c0.2,0.1,0.5,0.2,0.7,0.2c0.2,0,0.3,0.2,0.3,0.4c0,0.1,0,0.2,0,0.3l-1.2-0.1
	c-0.4,0-0.8,0-1.1,0h-0.6l-0.8,0l-0.8,0c-0.3,0-0.5,0-0.6,0c0-0.1,0-0.1,0-0.2v-0.2c0-0.1,0-0.2,0.1-0.3c0,0,0.1-0.1,0.1-0.1
	c0.3,0,0.5-0.1,0.7-0.2c0.1-0.1,0.2-0.2,0.2-0.4c0-0.1,0-0.2-0.1-0.3L71.3,94.8z M71,93.9l-1.6-4.3l-1.6,4.2L71,93.9L71,93.9z"/>
<path class="st1" d="M87,87.6v9.9c0,0.1,0,0.2,0,0.3c0,0.1,0.1,0.2,0.1,0.2c0.1,0.1,0.2,0.1,0.3,0.2c0.2,0.1,0.4,0.1,0.6,0.1
	c0.2,0,0.3,0.2,0.3,0.3c0,0,0,0.1,0,0.2c0,0.1,0,0.1,0,0.2c-0.4,0-0.8,0-1.3-0.1c-0.5,0-0.9,0-1.2,0c-0.4,0-0.8,0-1.2,0L83.3,99
	c0-0.1,0-0.1,0-0.2c0-0.1,0-0.1,0-0.2c0-0.1,0-0.2,0-0.2c0.1-0.1,0.2-0.1,0.3-0.1c0.3,0,0.6-0.1,0.9-0.3c0.1-0.1,0.2-0.3,0.2-0.5
	v-9.9H83c-0.3,0-0.6,0-0.9,0.1c-0.2,0.1-0.5,0.2-0.6,0.3c-0.2,0.2-0.4,0.4-0.5,0.6c-0.2,0.3-0.3,0.6-0.5,0.8c0,0.1-0.2,0.2-0.3,0.2
	c-0.1,0-0.2,0-0.3,0c-0.1,0-0.2,0-0.2-0.1c0.1-0.3,0.2-0.6,0.2-0.8c0.1-0.2,0.1-0.5,0.1-0.7c0-0.3,0.1-0.5,0.1-0.8
	c0-0.2,0-0.3,0.1-0.5c0.1-0.1,0.2-0.2,0.3-0.2c0.1,0,0.4,0,0.8,0.1c0.4,0,0.9,0.1,1.5,0.1h5.8c0.6,0,1.1,0,1.5-0.1
	c0.4,0,0.7-0.1,0.8-0.1c0.1,0,0.2,0.1,0.3,0.2c0,0.2,0.1,0.3,0.1,0.5c0,0.3,0.1,0.5,0.1,0.8c0,0.2,0.1,0.5,0.1,0.7
	c0.1,0.2,0.1,0.5,0.2,0.8l-0.2,0.1c-0.1,0-0.2,0-0.3,0c-0.1,0-0.2-0.1-0.3-0.2c-0.1-0.3-0.3-0.6-0.5-0.8c-0.1-0.2-0.3-0.4-0.5-0.6
	c-0.2-0.1-0.4-0.3-0.6-0.3c-0.3-0.1-0.6-0.1-0.9-0.1H87z"/>
<path class="st1" d="M101.7,97.6c0,0.1,0,0.2,0,0.3c0,0.1,0.1,0.2,0.2,0.2c0.1,0.1,0.2,0.1,0.4,0.2c0.2,0.1,0.4,0.1,0.6,0.1
	c0.1,0,0.2,0.2,0.2,0.3c0,0,0,0.1,0,0.2c0,0.1,0,0.1,0,0.2c-0.4,0-0.8,0-1.3-0.1c-0.5,0-0.9,0-1.2,0c-0.4,0-0.8,0-1.2,0L98,99
	c0-0.1,0-0.1,0-0.2v-0.2c0-0.2,0.1-0.3,0.2-0.3c0.2,0,0.4-0.1,0.6-0.1c0.1,0,0.2-0.1,0.3-0.2c0.1-0.1,0.1-0.1,0.1-0.2
	c0-0.1,0-0.2,0-0.3v-9.5c0-0.1,0-0.2,0-0.3c0-0.1-0.1-0.2-0.1-0.2c-0.1-0.1-0.2-0.1-0.3-0.2c-0.2-0.1-0.4-0.1-0.6-0.1
	c-0.1,0-0.2-0.2-0.2-0.3v-0.2c0-0.1,0-0.1,0-0.2c0.4,0,0.8,0,1.3,0.1c0.5,0,0.9,0,1.2,0c0.4,0,0.8,0,1.2,0c0.5,0,0.9,0,1.3-0.1
	c0,0.1,0,0.1,0,0.2c0,0.1,0,0.1,0,0.2c0,0.1-0.1,0.3-0.2,0.3c-0.2,0-0.4,0.1-0.6,0.1c-0.1,0-0.2,0.1-0.4,0.2
	c-0.1,0.1-0.1,0.1-0.2,0.2c0,0.1,0,0.2,0,0.3V97.6z"/>
<path class="st1" d="M118.8,88.3c0.1-0.1,0.1-0.3,0.1-0.4c0-0.2-0.1-0.3-0.2-0.4c-0.3-0.1-0.6-0.2-0.8-0.2c-0.2,0-0.2-0.1-0.2-0.4
	c0,0,0-0.1,0-0.1c0,0,0-0.1,0-0.1v-0.1l0.4,0l0.5,0h0.6h0.5c0.4,0,0.7,0,1,0c0.3,0,0.6,0,0.9-0.1v0.1c0,0,0,0.1,0,0.1V87
	c0,0.2-0.1,0.4-0.2,0.4c-0.3,0-0.6,0.1-0.9,0.2c-0.2,0.1-0.3,0.3-0.4,0.5l-4.6,11.1c-0.1,0-0.1,0-0.2,0h-0.1c-0.1,0-0.2,0-0.2-0.1
	c-0.1-0.1-0.1-0.2-0.1-0.3l-4.4-10.9c0-0.1-0.1-0.2-0.1-0.2c-0.1-0.1-0.1-0.1-0.2-0.2c-0.1-0.1-0.2-0.1-0.3-0.1
	c-0.2,0-0.4-0.1-0.6-0.1c-0.2,0-0.2-0.1-0.2-0.4v-0.2c0-0.1,0-0.1,0-0.2l0.6,0l0.7,0h0.7h0.6c0.4,0,0.9,0,1.4,0c0.5,0,0.9,0,1.3-0.1
	c0,0.1,0,0.1,0,0.2v0.1c0,0.2-0.1,0.3-0.2,0.4c-0.3,0-0.6,0.1-0.8,0.2c-0.1,0.1-0.2,0.2-0.2,0.4c0,0.1,0,0.2,0.1,0.3l2.8,7.4
	L118.8,88.3z"/>
<path class="st1" d="M131.5,87.6v4.6h2.7c0.2,0,0.4-0.1,0.5-0.3c0.1-0.3,0.2-0.6,0.2-0.9c0-0.1,0-0.2,0.1-0.2c0.1,0,0.2,0,0.2,0h0.2
	c0.1,0,0.1,0,0.2,0c0,0.3,0,0.6-0.1,1c0,0.4,0,0.7,0,1c0,0.2,0,0.5,0,0.8c0,0.3,0,0.7,0.1,1c-0.1,0-0.1,0-0.2,0h-0.2
	c-0.2,0-0.3-0.1-0.4-0.2c0,0,0,0,0,0c0-0.3-0.1-0.7-0.3-1c-0.1-0.2-0.3-0.3-0.5-0.3h-2.7v4.2c0,0.3,0.2,0.5,0.5,0.5
	c0.5,0.1,1.1,0.2,1.7,0.1h0.8c0.3,0,0.6,0,1-0.1c0.3-0.1,0.5-0.2,0.7-0.4c0.2-0.2,0.4-0.4,0.5-0.6c0.2-0.2,0.3-0.5,0.5-0.8
	c0.1-0.1,0.2-0.1,0.3-0.1c0.1,0,0.2,0,0.2,0.1l0.3,0.1c0,0.1-0.1,0.2-0.1,0.3c0,0.1-0.1,0.2-0.1,0.3c-0.1,0.1-0.1,0.3-0.1,0.5
	c0,0.1-0.1,0.3-0.1,0.4l-0.1,0.4c0,0.2-0.1,0.3-0.1,0.5c0,0.1-0.1,0.3-0.1,0.4c0,0.1-0.1,0.2-0.1,0.2c-0.1,0.1-0.2,0.2-0.3,0.2h-0.4
	l-0.6,0l-0.7,0c-0.2,0-0.4,0-0.6,0h-4.3c-0.4,0-0.8,0-1.3,0s-0.9,0-1.3,0.1c0-0.1,0-0.1,0-0.2v-0.2c0-0.1,0-0.3,0.2-0.3c0,0,0,0,0,0
	c0.4-0.1,0.7-0.1,1-0.3c0.2-0.1,0.3-0.3,0.3-0.5v-9.5c0-0.1,0-0.2-0.1-0.3c0-0.1-0.1-0.2-0.2-0.2c-0.1-0.1-0.3-0.1-0.4-0.1
	c-0.2,0-0.4-0.1-0.6-0.1c-0.1-0.1-0.2-0.2-0.2-0.3v-0.2c0-0.1,0-0.1,0-0.2c0.5,0,1,0.1,1.4,0.1c0.4,0,0.8,0,1.1,0h3.9
	c0.6,0,1.1,0,1.5-0.1c0.4,0,0.7-0.1,0.8-0.1c0.1,0,0.2,0.1,0.3,0.2c0.1,0.2,0.1,0.4,0.1,0.6c0,0.3,0.1,0.6,0.1,0.8
	c0,0.2,0.1,0.4,0.1,0.6c0,0.2,0.1,0.5,0.2,0.7l-0.2,0.1c-0.1,0-0.2,0-0.2,0c-0.1,0-0.2-0.1-0.3-0.2c-0.1-0.3-0.3-0.6-0.5-0.8
	c-0.1-0.2-0.3-0.4-0.5-0.6c-0.2-0.1-0.4-0.3-0.6-0.3c-0.3-0.1-0.6-0.1-0.9-0.1L131.5,87.6L131.5,87.6z"/>
</svg>
